<svg xmlns="http://www.w3.org/2000/svg" viewBox="0 0 256 256" fill="currentColor">
  <rect width="256" height="256" fill="none" />
  <path
    d="M215.3,80.7,144.6,9.4a8,8,0,0,0-9.2,0L40.7,80.7a8,8,0,0,0-3.3,9.3l20.2,60.8a8,8,0,0,0,2.1,4.5,23.9,23.9,0,0,0-15.9,21.9,24,24,0,0,0,24,24H208a24,24,0,0,0,24-24,23.9,23.9,0,0,0-15.9-21.9,8,8,0,0,0,2.1-4.5l20.2-60.8A8,8,0,0,0,215.3,80.7Z"
    fill="none"
    stroke="currentColor"
    stroke-linecap="round"
    stroke-linejoin="round"
    stroke-width="12"
  />
  <path
    d="M176,152a48,48,0,0,1-96,0"
    fill="none"
    stroke="currentColor"
    stroke-linecap="round"
    stroke-linejoin="round"
    stroke-width="12"
  />
</svg>
